<svg width="369" height="79" viewBox="0 0 369 79" fill="none" xmlns="http://www.w3.org/2000/svg">
<path d="M37.376 0.710938L45.6415 27.7521H72.3894L50.7499 44.4645L59.0155 71.5057L37.376 54.7933L15.7365 71.5057L24.002 44.4645L2.36254 27.7521H29.1104L37.376 0.710938Z" fill="#CB011B"/>
<path d="M111.007 0.710938L119.272 27.7521H146.02L124.381 44.4645L132.646 71.5057L111.007 54.7933L89.3671 71.5057L97.6327 44.4645L75.9932 27.7521H102.741L111.007 0.710938Z" fill="#CB011B"/>
<path d="M184.637 0.710938L192.903 27.7521H219.651L198.011 44.4645L206.277 71.5057L184.637 54.7933L162.998 71.5057L171.263 44.4645L149.624 27.7521H176.372L184.637 0.710938Z" fill="#CB011B"/>
<path d="M258.268 0.710938L266.533 27.7521H293.281L271.642 44.4645L279.907 71.5057L258.268 54.7933L236.628 71.5057L244.894 44.4645L223.255 27.7521H250.002L258.268 0.710938Z" fill="#CB011B"/>
<path d="M331.899 0.710938L340.164 27.7521H366.912L345.273 44.4645L353.538 71.5057L331.899 54.7933L310.259 71.5057L318.525 44.4645L296.885 27.7521H323.633L331.899 0.710938Z" fill="#CB011B"/>
</svg>
